<?xml version="1.0" encoding="UTF-8" standalone="no"?>
<!DOCTYPE svg PUBLIC "-//W3C//DTD SVG 1.1//EN"
 "http://www.w3.org/Graphics/SVG/1.1/DTD/svg11.dtd">
<!-- Generated by graphviz version 5.0.0 (20220707.1540)
 -->
<!-- Title: dependencies Pages: 1 -->
<svg width="422pt" height="174pt"
 viewBox="0.00 0.00 422.00 173.80" xmlns="http://www.w3.org/2000/svg" xmlns:xlink="http://www.w3.org/1999/xlink">
<g id="graph0" class="graph" transform="scale(1 1) rotate(0) translate(4 169.8)">
<title>dependencies</title>
<polygon fill="white" stroke="transparent" points="-4,4 -4,-169.8 418,-169.8 418,4 -4,4"/>
<text text-anchor="middle" x="207" y="-8.2" font-family="sans-serif" font-size="14.00">dependencies</text>
<g id="clust1" class="cluster">
<title>cluster_LunchMealMenuModule</title>
<polygon fill="none" stroke="black" stroke-dasharray="1,5" points="8,-32.8 8,-157.8 406,-157.8 406,-32.8 8,-32.8"/>
</g>
<g id="clust6" class="cluster">
<title>cluster_LunchMealMenuModule_providers</title>
<polygon fill="none" stroke="black" points="16,-40.8 16,-92.8 398,-92.8 398,-40.8 16,-40.8"/>
</g>
<!-- LunchMealMenuService -->
<g id="node1" class="node">
<title>LunchMealMenuService</title>
<ellipse fill="#fdb462" stroke="black" cx="283" cy="-66.8" rx="107.07" ry="18"/>
<text text-anchor="middle" x="283" y="-62.6" font-family="Times,serif" font-size="14.00">LunchMealMenuService</text>
</g>
<!-- LunchMealMenuModule -->
<g id="node3" class="node">
<title>LunchMealMenuModule</title>
<polygon fill="#8dd3c7" stroke="black" points="266.25,-149.8 263.25,-153.8 242.25,-153.8 239.25,-149.8 109.75,-149.8 109.75,-113.8 266.25,-113.8 266.25,-149.8"/>
<text text-anchor="middle" x="188" y="-127.6" font-family="Times,serif" font-size="14.00">LunchMealMenuModule</text>
</g>
<!-- LunchMealMenuService&#45;&gt;LunchMealMenuModule -->
<g id="edge1" class="edge">
<title>LunchMealMenuService&#45;&gt;LunchMealMenuModule</title>
<path fill="none" stroke="black" d="M221.17,-81.55C221.17,-81.55 221.17,-103.39 221.17,-103.39"/>
<polygon fill="black" stroke="black" points="217.67,-103.39 221.17,-113.39 224.67,-103.39 217.67,-103.39"/>
</g>
<!-- PrismaService -->
<g id="node2" class="node">
<title>PrismaService</title>
<ellipse fill="#fdb462" stroke="black" cx="91" cy="-66.8" rx="66.64" ry="18"/>
<text text-anchor="middle" x="91" y="-62.6" font-family="Times,serif" font-size="14.00">PrismaService</text>
</g>
<!-- PrismaService&#45;&gt;LunchMealMenuModule -->
<g id="edge2" class="edge">
<title>PrismaService&#45;&gt;LunchMealMenuModule</title>
<path fill="none" stroke="black" d="M133.72,-80.9C133.72,-80.9 133.72,-103.52 133.72,-103.52"/>
<polygon fill="black" stroke="black" points="130.22,-103.52 133.72,-113.52 137.22,-103.52 130.22,-103.52"/>
</g>
</g>
</svg>
