<?xml version="1.0" encoding="UTF-8" standalone="no"?>
<!DOCTYPE svg PUBLIC "-//W3C//DTD SVG 1.1//EN"
 "http://www.w3.org/Graphics/SVG/1.1/DTD/svg11.dtd">
<!-- Generated by graphviz version 5.0.0 (20220707.1540)
 -->
<!-- Title: dependencies Pages: 1 -->
<svg width="409pt" height="174pt"
 viewBox="0.00 0.00 409.00 173.80" xmlns="http://www.w3.org/2000/svg" xmlns:xlink="http://www.w3.org/1999/xlink">
<g id="graph0" class="graph" transform="scale(1 1) rotate(0) translate(4 169.8)">
<title>dependencies</title>
<polygon fill="white" stroke="transparent" points="-4,4 -4,-169.8 405,-169.8 405,4 -4,4"/>
<text text-anchor="middle" x="200.5" y="-8.2" font-family="sans-serif" font-size="14.00">dependencies</text>
<g id="clust1" class="cluster">
<title>cluster_LunchBoxTypeModule</title>
<polygon fill="none" stroke="black" stroke-dasharray="1,5" points="8,-32.8 8,-157.8 393,-157.8 393,-32.8 8,-32.8"/>
</g>
<g id="clust6" class="cluster">
<title>cluster_LunchBoxTypeModule_providers</title>
<polygon fill="none" stroke="black" points="16,-40.8 16,-92.8 385,-92.8 385,-40.8 16,-40.8"/>
</g>
<!-- LunchBoxTypeService -->
<g id="node1" class="node">
<title>LunchBoxTypeService</title>
<ellipse fill="#fdb462" stroke="black" cx="276" cy="-66.8" rx="100.71" ry="18"/>
<text text-anchor="middle" x="276" y="-62.6" font-family="Times,serif" font-size="14.00">LunchBoxTypeService</text>
</g>
<!-- LunchBoxTypeModule -->
<g id="node3" class="node">
<title>LunchBoxTypeModule</title>
<polygon fill="#8dd3c7" stroke="black" points="256.92,-149.8 253.92,-153.8 232.92,-153.8 229.92,-149.8 109.08,-149.8 109.08,-113.8 256.92,-113.8 256.92,-149.8"/>
<text text-anchor="middle" x="183" y="-127.6" font-family="Times,serif" font-size="14.00">LunchBoxTypeModule</text>
</g>
<!-- LunchBoxTypeService&#45;&gt;LunchBoxTypeModule -->
<g id="edge1" class="edge">
<title>LunchBoxTypeService&#45;&gt;LunchBoxTypeModule</title>
<path fill="none" stroke="black" d="M216.05,-81.55C216.05,-81.55 216.05,-103.39 216.05,-103.39"/>
<polygon fill="black" stroke="black" points="212.55,-103.39 216.05,-113.39 219.55,-103.39 212.55,-103.39"/>
</g>
<!-- PrismaService -->
<g id="node2" class="node">
<title>PrismaService</title>
<ellipse fill="#fdb462" stroke="black" cx="91" cy="-66.8" rx="66.64" ry="18"/>
<text text-anchor="middle" x="91" y="-62.6" font-family="Times,serif" font-size="14.00">PrismaService</text>
</g>
<!-- PrismaService&#45;&gt;LunchBoxTypeModule -->
<g id="edge2" class="edge">
<title>PrismaService&#45;&gt;LunchBoxTypeModule</title>
<path fill="none" stroke="black" d="M133.55,-80.9C133.55,-80.9 133.55,-103.52 133.55,-103.52"/>
<polygon fill="black" stroke="black" points="130.05,-103.52 133.55,-113.52 137.05,-103.52 130.05,-103.52"/>
</g>
</g>
</svg>
