<?xml version="1.0" encoding="UTF-8" standalone="no"?>
<!DOCTYPE svg PUBLIC "-//W3C//DTD SVG 1.1//EN"
 "http://www.w3.org/Graphics/SVG/1.1/DTD/svg11.dtd">
<!-- Generated by graphviz version 5.0.0 (20220707.1540)
 -->
<!-- Title: dependencies Pages: 1 -->
<svg width="409pt" height="174pt"
 viewBox="0.00 0.00 409.00 173.80" xmlns="http://www.w3.org/2000/svg" xmlns:xlink="http://www.w3.org/1999/xlink">
<g id="graph0" class="graph" transform="scale(1 1) rotate(0) translate(4 169.8)">
<title>dependencies</title>
<polygon fill="white" stroke="transparent" points="-4,4 -4,-169.8 405,-169.8 405,4 -4,4"/>
<text text-anchor="middle" x="200.5" y="-8.2" font-family="sans-serif" font-size="14.00">dependencies</text>
<g id="clust1" class="cluster">
<title>cluster_OrderForLunchModule</title>
<polygon fill="none" stroke="black" stroke-dasharray="1,5" points="8,-32.8 8,-157.8 393,-157.8 393,-32.8 8,-32.8"/>
</g>
<g id="clust6" class="cluster">
<title>cluster_OrderForLunchModule_providers</title>
<polygon fill="none" stroke="black" points="16,-40.8 16,-92.8 385,-92.8 385,-40.8 16,-40.8"/>
</g>
<!-- OrderForLunchService -->
<g id="node1" class="node">
<title>OrderForLunchService</title>
<ellipse fill="#fdb462" stroke="black" cx="276" cy="-66.8" rx="100.7" ry="18"/>
<text text-anchor="middle" x="276" y="-62.6" font-family="Times,serif" font-size="14.00">OrderForLunchService</text>
</g>
<!-- OrderForLunchModule -->
<g id="node3" class="node">
<title>OrderForLunchModule</title>
<polygon fill="#8dd3c7" stroke="black" points="256.91,-149.8 253.91,-153.8 232.91,-153.8 229.91,-149.8 109.09,-149.8 109.09,-113.8 256.91,-113.8 256.91,-149.8"/>
<text text-anchor="middle" x="183" y="-127.6" font-family="Times,serif" font-size="14.00">OrderForLunchModule</text>
</g>
<!-- OrderForLunchService&#45;&gt;OrderForLunchModule -->
<g id="edge1" class="edge">
<title>OrderForLunchService&#45;&gt;OrderForLunchModule</title>
<path fill="none" stroke="black" d="M216.05,-81.55C216.05,-81.55 216.05,-103.39 216.05,-103.39"/>
<polygon fill="black" stroke="black" points="212.55,-103.39 216.05,-113.39 219.55,-103.39 212.55,-103.39"/>
</g>
<!-- PrismaService -->
<g id="node2" class="node">
<title>PrismaService</title>
<ellipse fill="#fdb462" stroke="black" cx="91" cy="-66.8" rx="66.64" ry="18"/>
<text text-anchor="middle" x="91" y="-62.6" font-family="Times,serif" font-size="14.00">PrismaService</text>
</g>
<!-- PrismaService&#45;&gt;OrderForLunchModule -->
<g id="edge2" class="edge">
<title>PrismaService&#45;&gt;OrderForLunchModule</title>
<path fill="none" stroke="black" d="M133.56,-80.9C133.56,-80.9 133.56,-103.52 133.56,-103.52"/>
<polygon fill="black" stroke="black" points="130.06,-103.52 133.56,-113.52 137.06,-103.52 130.06,-103.52"/>
</g>
</g>
</svg>
