<?xml version="1.0" encoding="UTF-8" standalone="no"?>
<!DOCTYPE svg PUBLIC "-//W3C//DTD SVG 1.1//EN"
 "http://www.w3.org/Graphics/SVG/1.1/DTD/svg11.dtd">
<!-- Generated by graphviz version 5.0.0 (20220707.1540)
 -->
<!-- Title: dependencies Pages: 1 -->
<svg width="786pt" height="174pt"
 viewBox="0.00 0.00 786.00 173.80" xmlns="http://www.w3.org/2000/svg" xmlns:xlink="http://www.w3.org/1999/xlink">
<g id="graph0" class="graph" transform="scale(1 1) rotate(0) translate(4 169.8)">
<title>dependencies</title>
<polygon fill="white" stroke="transparent" points="-4,4 -4,-169.8 782,-169.8 782,4 -4,4"/>
<text text-anchor="middle" x="389" y="-8.2" font-family="sans-serif" font-size="14.00">dependencies</text>
<g id="clust1" class="cluster">
<title>cluster_AppModule</title>
<polygon fill="none" stroke="black" stroke-dasharray="1,5" points="8,-32.8 8,-157.8 770,-157.8 770,-32.8 8,-32.8"/>
</g>
<g id="clust3" class="cluster">
<title>cluster_AppModule_imports</title>
<polygon fill="none" stroke="black" points="154,-40.8 154,-92.8 762,-92.8 762,-40.8 154,-40.8"/>
</g>
<g id="clust6" class="cluster">
<title>cluster_AppModule_providers</title>
<polygon fill="none" stroke="black" points="16,-40.8 16,-92.8 146,-92.8 146,-40.8 16,-40.8"/>
</g>
<!-- LunchBoxTypeModule -->
<g id="node1" class="node">
<title>LunchBoxTypeModule</title>
<polygon fill="#8dd3c7" stroke="black" points="753.92,-84.8 750.92,-88.8 729.92,-88.8 726.92,-84.8 606.08,-84.8 606.08,-48.8 753.92,-48.8 753.92,-84.8"/>
<text text-anchor="middle" x="680" y="-62.6" font-family="Times,serif" font-size="14.00">LunchBoxTypeModule</text>
</g>
<!-- AppModule -->
<g id="node5" class="node">
<title>AppModule</title>
<polygon fill="#8dd3c7" stroke="black" points="381.66,-149.8 378.66,-153.8 357.66,-153.8 354.66,-149.8 298.34,-149.8 298.34,-113.8 381.66,-113.8 381.66,-149.8"/>
<text text-anchor="middle" x="340" y="-127.6" font-family="Times,serif" font-size="14.00">AppModule</text>
</g>
<!-- LunchBoxTypeModule&#45;&gt;AppModule -->
<g id="edge1" class="edge">
<title>LunchBoxTypeModule&#45;&gt;AppModule</title>
<path fill="none" stroke="black" d="M680,-85.08C680,-106.12 680,-137.8 680,-137.8 680,-137.8 391.69,-137.8 391.69,-137.8"/>
<polygon fill="black" stroke="black" points="391.69,-134.3 381.69,-137.8 391.69,-141.3 391.69,-134.3"/>
</g>
<!-- LunchMealMenuModule -->
<g id="node2" class="node">
<title>LunchMealMenuModule</title>
<polygon fill="#8dd3c7" stroke="black" points="588.25,-84.8 585.25,-88.8 564.25,-88.8 561.25,-84.8 431.75,-84.8 431.75,-48.8 588.25,-48.8 588.25,-84.8"/>
<text text-anchor="middle" x="510" y="-62.6" font-family="Times,serif" font-size="14.00">LunchMealMenuModule</text>
</g>
<!-- LunchMealMenuModule&#45;&gt;AppModule -->
<g id="edge2" class="edge">
<title>LunchMealMenuModule&#45;&gt;AppModule</title>
<path fill="none" stroke="black" d="M510,-84.82C510,-102.17 510,-125.8 510,-125.8 510,-125.8 392.02,-125.8 392.02,-125.8"/>
<polygon fill="black" stroke="black" points="392.02,-122.3 382.02,-125.8 392.02,-129.3 392.02,-122.3"/>
</g>
<!-- OrderForLunchModule -->
<g id="node3" class="node">
<title>OrderForLunchModule</title>
<polygon fill="#8dd3c7" stroke="black" points="413.91,-84.8 410.91,-88.8 389.91,-88.8 386.91,-84.8 266.09,-84.8 266.09,-48.8 413.91,-48.8 413.91,-84.8"/>
<text text-anchor="middle" x="340" y="-62.6" font-family="Times,serif" font-size="14.00">OrderForLunchModule</text>
</g>
<!-- OrderForLunchModule&#45;&gt;AppModule -->
<g id="edge3" class="edge">
<title>OrderForLunchModule&#45;&gt;AppModule</title>
<path fill="none" stroke="black" d="M340,-84.91C340,-84.91 340,-103.79 340,-103.79"/>
<polygon fill="black" stroke="black" points="336.5,-103.79 340,-113.79 343.5,-103.79 336.5,-103.79"/>
</g>
<!-- UserModule -->
<g id="node4" class="node">
<title>UserModule</title>
<polygon fill="#8dd3c7" stroke="black" points="247.99,-84.8 244.99,-88.8 223.99,-88.8 220.99,-84.8 162.01,-84.8 162.01,-48.8 247.99,-48.8 247.99,-84.8"/>
<text text-anchor="middle" x="205" y="-62.6" font-family="Times,serif" font-size="14.00">UserModule</text>
</g>
<!-- UserModule&#45;&gt;AppModule -->
<g id="edge4" class="edge">
<title>UserModule&#45;&gt;AppModule</title>
<path fill="none" stroke="black" d="M205,-84.82C205,-102.17 205,-125.8 205,-125.8 205,-125.8 288.03,-125.8 288.03,-125.8"/>
<polygon fill="black" stroke="black" points="288.03,-129.3 298.03,-125.8 288.03,-122.3 288.03,-129.3"/>
</g>
<!-- AppService -->
<g id="node6" class="node">
<title>AppService</title>
<ellipse fill="#fdb462" stroke="black" cx="81" cy="-66.8" rx="56.75" ry="18"/>
<text text-anchor="middle" x="81" y="-62.6" font-family="Times,serif" font-size="14.00">AppService</text>
</g>
<!-- AppService&#45;&gt;AppModule -->
<g id="edge5" class="edge">
<title>AppService&#45;&gt;AppModule</title>
<path fill="none" stroke="black" d="M81,-85.08C81,-106.12 81,-137.8 81,-137.8 81,-137.8 288.1,-137.8 288.1,-137.8"/>
<polygon fill="black" stroke="black" points="288.1,-141.3 298.1,-137.8 288.1,-134.3 288.1,-141.3"/>
</g>
</g>
</svg>
