<?xml version="1.0" encoding="UTF-8" standalone="no"?>
<!DOCTYPE svg PUBLIC "-//W3C//DTD SVG 1.1//EN"
 "http://www.w3.org/Graphics/SVG/1.1/DTD/svg11.dtd">
<!-- Generated by graphviz version 5.0.0 (20220707.1540)
 -->
<!-- Title: dependencies Pages: 1 -->
<svg width="1061pt" height="250pt"
 viewBox="0.00 0.00 1061.00 249.80" xmlns="http://www.w3.org/2000/svg" xmlns:xlink="http://www.w3.org/1999/xlink">
<g id="graph0" class="graph" transform="scale(1 1) rotate(0) translate(4 245.8)">
<title>dependencies</title>
<polygon fill="white" stroke="transparent" points="-4,4 -4,-245.8 1057,-245.8 1057,4 -4,4"/>
<text text-anchor="middle" x="526.5" y="-8.2" font-family="sans-serif" font-size="14.00">dependencies</text>
<g id="clust1" class="cluster">
<title>cluster_AppModule</title>
<polygon fill="none" stroke="black" stroke-dasharray="1,5" points="21,-108.8 21,-233.8 783,-233.8 783,-108.8 21,-108.8"/>
</g>
<g id="clust3" class="cluster">
<title>cluster_AppModule_imports</title>
<polygon fill="none" stroke="black" points="167,-116.8 167,-168.8 775,-168.8 775,-116.8 167,-116.8"/>
</g>
<g id="clust6" class="cluster">
<title>cluster_AppModule_providers</title>
<polygon fill="none" stroke="black" points="29,-116.8 29,-168.8 159,-168.8 159,-116.8 29,-116.8"/>
</g>
<g id="clust7" class="cluster">
<title>cluster_LunchBoxTypeModule</title>
<polygon fill="none" stroke="black" stroke-dasharray="1,5" points="8,-32.8 8,-100.8 393,-100.8 393,-32.8 8,-32.8"/>
</g>
<g id="clust12" class="cluster">
<title>cluster_LunchBoxTypeModule_providers</title>
<polygon fill="none" stroke="black" points="16,-40.8 16,-92.8 385,-92.8 385,-40.8 16,-40.8"/>
</g>
<g id="clust13" class="cluster">
<title>cluster_LunchMealMenuModule</title>
<polygon fill="none" stroke="black" stroke-dasharray="1,5" points="401,-32.8 401,-100.8 647,-100.8 647,-32.8 401,-32.8"/>
</g>
<g id="clust18" class="cluster">
<title>cluster_LunchMealMenuModule_providers</title>
<polygon fill="none" stroke="black" points="409,-40.8 409,-92.8 639,-92.8 639,-40.8 409,-40.8"/>
</g>
<g id="clust19" class="cluster">
<title>cluster_OrderForLunchModule</title>
<polygon fill="none" stroke="black" stroke-dasharray="1,5" points="655,-32.8 655,-100.8 889,-100.8 889,-32.8 655,-32.8"/>
</g>
<g id="clust24" class="cluster">
<title>cluster_OrderForLunchModule_providers</title>
<polygon fill="none" stroke="black" points="663,-40.8 663,-92.8 881,-92.8 881,-40.8 663,-40.8"/>
</g>
<g id="clust25" class="cluster">
<title>cluster_UserModule</title>
<polygon fill="none" stroke="black" stroke-dasharray="1,5" points="897,-32.8 897,-100.8 1045,-100.8 1045,-32.8 897,-32.8"/>
</g>
<g id="clust30" class="cluster">
<title>cluster_UserModule_providers</title>
<polygon fill="none" stroke="black" points="905,-40.8 905,-92.8 1037,-92.8 1037,-40.8 905,-40.8"/>
</g>
<!-- LunchBoxTypeModule -->
<g id="node1" class="node">
<title>LunchBoxTypeModule</title>
<polygon fill="#8dd3c7" stroke="black" points="322.92,-160.8 319.92,-164.8 298.92,-164.8 295.92,-160.8 175.08,-160.8 175.08,-124.8 322.92,-124.8 322.92,-160.8"/>
<text text-anchor="middle" x="249" y="-138.6" font-family="Times,serif" font-size="14.00">LunchBoxTypeModule</text>
</g>
<!-- AppModule -->
<g id="node5" class="node">
<title>AppModule</title>
<polygon fill="#8dd3c7" stroke="black" points="460.66,-225.8 457.66,-229.8 436.66,-229.8 433.66,-225.8 377.34,-225.8 377.34,-189.8 460.66,-189.8 460.66,-225.8"/>
<text text-anchor="middle" x="419" y="-203.6" font-family="Times,serif" font-size="14.00">AppModule</text>
</g>
<!-- LunchBoxTypeModule&#45;&gt;AppModule -->
<g id="edge1" class="edge">
<title>LunchBoxTypeModule&#45;&gt;AppModule</title>
<path fill="none" stroke="black" d="M249,-160.82C249,-178.17 249,-201.8 249,-201.8 249,-201.8 366.98,-201.8 366.98,-201.8"/>
<polygon fill="black" stroke="black" points="366.98,-205.3 376.98,-201.8 366.98,-198.3 366.98,-205.3"/>
</g>
<!-- LunchMealMenuModule -->
<g id="node2" class="node">
<title>LunchMealMenuModule</title>
<polygon fill="#8dd3c7" stroke="black" points="497.25,-160.8 494.25,-164.8 473.25,-164.8 470.25,-160.8 340.75,-160.8 340.75,-124.8 497.25,-124.8 497.25,-160.8"/>
<text text-anchor="middle" x="419" y="-138.6" font-family="Times,serif" font-size="14.00">LunchMealMenuModule</text>
</g>
<!-- LunchMealMenuModule&#45;&gt;AppModule -->
<g id="edge2" class="edge">
<title>LunchMealMenuModule&#45;&gt;AppModule</title>
<path fill="none" stroke="black" d="M419,-160.91C419,-160.91 419,-179.79 419,-179.79"/>
<polygon fill="black" stroke="black" points="415.5,-179.79 419,-189.79 422.5,-179.79 415.5,-179.79"/>
</g>
<!-- OrderForLunchModule -->
<g id="node3" class="node">
<title>OrderForLunchModule</title>
<polygon fill="#8dd3c7" stroke="black" points="662.91,-160.8 659.91,-164.8 638.91,-164.8 635.91,-160.8 515.09,-160.8 515.09,-124.8 662.91,-124.8 662.91,-160.8"/>
<text text-anchor="middle" x="589" y="-138.6" font-family="Times,serif" font-size="14.00">OrderForLunchModule</text>
</g>
<!-- OrderForLunchModule&#45;&gt;AppModule -->
<g id="edge3" class="edge">
<title>OrderForLunchModule&#45;&gt;AppModule</title>
<path fill="none" stroke="black" d="M589,-160.82C589,-178.17 589,-201.8 589,-201.8 589,-201.8 471.02,-201.8 471.02,-201.8"/>
<polygon fill="black" stroke="black" points="471.02,-198.3 461.02,-201.8 471.02,-205.3 471.02,-198.3"/>
</g>
<!-- UserModule -->
<g id="node4" class="node">
<title>UserModule</title>
<polygon fill="#8dd3c7" stroke="black" points="766.99,-160.8 763.99,-164.8 742.99,-164.8 739.99,-160.8 681.01,-160.8 681.01,-124.8 766.99,-124.8 766.99,-160.8"/>
<text text-anchor="middle" x="724" y="-138.6" font-family="Times,serif" font-size="14.00">UserModule</text>
</g>
<!-- UserModule&#45;&gt;AppModule -->
<g id="edge4" class="edge">
<title>UserModule&#45;&gt;AppModule</title>
<path fill="none" stroke="black" d="M724,-161.08C724,-182.12 724,-213.8 724,-213.8 724,-213.8 470.77,-213.8 470.77,-213.8"/>
<polygon fill="black" stroke="black" points="470.77,-210.3 460.77,-213.8 470.77,-217.3 470.77,-210.3"/>
</g>
<!-- AppService -->
<g id="node6" class="node">
<title>AppService</title>
<ellipse fill="#fdb462" stroke="black" cx="94" cy="-142.8" rx="56.75" ry="18"/>
<text text-anchor="middle" x="94" y="-138.6" font-family="Times,serif" font-size="14.00">AppService</text>
</g>
<!-- AppService&#45;&gt;AppModule -->
<g id="edge5" class="edge">
<title>AppService&#45;&gt;AppModule</title>
<path fill="none" stroke="black" d="M94,-161.08C94,-182.12 94,-213.8 94,-213.8 94,-213.8 367.18,-213.8 367.18,-213.8"/>
<polygon fill="black" stroke="black" points="367.18,-217.3 377.18,-213.8 367.18,-210.3 367.18,-217.3"/>
</g>
<!-- LunchBoxTypeService -->
<g id="node7" class="node">
<title>LunchBoxTypeService</title>
<ellipse fill="#fdb462" stroke="black" cx="125" cy="-66.8" rx="100.71" ry="18"/>
<text text-anchor="middle" x="125" y="-62.6" font-family="Times,serif" font-size="14.00">LunchBoxTypeService</text>
</g>
<!-- LunchBoxTypeService&#45;&gt;LunchBoxTypeModule -->
<g id="edge6" class="edge">
<title>LunchBoxTypeService&#45;&gt;LunchBoxTypeModule</title>
<path fill="none" stroke="black" d="M200.45,-79.01C200.45,-79.01 200.45,-114.66 200.45,-114.66"/>
<polygon fill="black" stroke="black" points="196.95,-114.66 200.45,-124.66 203.95,-114.66 196.95,-114.66"/>
</g>
<!-- PrismaService -->
<g id="node8" class="node">
<title>PrismaService</title>
<ellipse fill="#fdb462" stroke="black" cx="310" cy="-66.8" rx="66.64" ry="18"/>
<text text-anchor="middle" x="310" y="-62.6" font-family="Times,serif" font-size="14.00">PrismaService</text>
</g>
<!-- PrismaService&#45;&gt;LunchBoxTypeModule -->
<g id="edge7" class="edge">
<title>PrismaService&#45;&gt;LunchBoxTypeModule</title>
<path fill="none" stroke="black" d="M282.95,-83.29C282.95,-83.29 282.95,-114.75 282.95,-114.75"/>
<polygon fill="black" stroke="black" points="279.45,-114.75 282.95,-124.75 286.45,-114.75 279.45,-114.75"/>
</g>
<!-- PrismaService&#45;&gt;LunchMealMenuModule -->
<g id="edge9" class="edge">
<title>PrismaService&#45;&gt;LunchMealMenuModule</title>
<path fill="none" stroke="black" d="M349.68,-81.45C349.68,-81.45 349.68,-114.7 349.68,-114.7"/>
<polygon fill="black" stroke="black" points="346.18,-114.7 349.68,-124.7 353.18,-114.7 346.18,-114.7"/>
</g>
<!-- PrismaService&#45;&gt;OrderForLunchModule -->
<g id="edge11" class="edge">
<title>PrismaService&#45;&gt;OrderForLunchModule</title>
<path fill="none" stroke="black" d="M358.72,-79.57C358.72,-92.88 358.72,-111.8 358.72,-111.8 358.72,-111.8 573.16,-111.8 573.16,-111.8 573.16,-111.8 573.16,-114.77 573.16,-114.77"/>
<polygon fill="black" stroke="black" points="569.66,-114.77 573.16,-124.77 576.66,-114.77 569.66,-114.77"/>
</g>
<!-- PrismaService&#45;&gt;UserModule -->
<g id="edge12" class="edge">
<title>PrismaService&#45;&gt;UserModule</title>
<path fill="none" stroke="black" d="M367.77,-75.88C367.77,-85.34 367.77,-98.8 367.77,-98.8 367.77,-98.8 724,-98.8 724,-98.8 724,-98.8 724,-114.65 724,-114.65"/>
<polygon fill="black" stroke="black" points="720.5,-114.65 724,-124.65 727.5,-114.65 720.5,-114.65"/>
</g>
<!-- LunchMealMenuService -->
<g id="node9" class="node">
<title>LunchMealMenuService</title>
<ellipse fill="#fdb462" stroke="black" cx="524" cy="-66.8" rx="107.07" ry="18"/>
<text text-anchor="middle" x="524" y="-62.6" font-family="Times,serif" font-size="14.00">LunchMealMenuService</text>
</g>
<!-- LunchMealMenuService&#45;&gt;LunchMealMenuModule -->
<g id="edge8" class="edge">
<title>LunchMealMenuService&#45;&gt;LunchMealMenuModule</title>
<path fill="none" stroke="black" d="M457.17,-81.1C457.17,-81.1 457.17,-114.53 457.17,-114.53"/>
<polygon fill="black" stroke="black" points="453.67,-114.53 457.17,-124.53 460.67,-114.53 453.67,-114.53"/>
</g>
<!-- OrderForLunchService -->
<g id="node10" class="node">
<title>OrderForLunchService</title>
<ellipse fill="#fdb462" stroke="black" cx="772" cy="-66.8" rx="100.7" ry="18"/>
<text text-anchor="middle" x="772" y="-62.6" font-family="Times,serif" font-size="14.00">OrderForLunchService</text>
</g>
<!-- OrderForLunchService&#45;&gt;OrderForLunchModule -->
<g id="edge10" class="edge">
<title>OrderForLunchService&#45;&gt;OrderForLunchModule</title>
<path fill="none" stroke="black" d="M676.2,-72.76C676.2,-90.68 676.2,-142.8 676.2,-142.8 676.2,-142.8 672.96,-142.8 672.96,-142.8"/>
<polygon fill="black" stroke="black" points="672.96,-139.3 662.96,-142.8 672.96,-146.3 672.96,-139.3"/>
</g>
<!-- UserService -->
<g id="node11" class="node">
<title>UserService</title>
<ellipse fill="#fdb462" stroke="black" cx="971" cy="-66.8" rx="58.46" ry="18"/>
<text text-anchor="middle" x="971" y="-62.6" font-family="Times,serif" font-size="14.00">UserService</text>
</g>
<!-- UserService&#45;&gt;UserModule -->
<g id="edge13" class="edge">
<title>UserService&#45;&gt;UserModule</title>
<path fill="none" stroke="black" d="M971,-84.81C971,-107.29 971,-142.8 971,-142.8 971,-142.8 777.02,-142.8 777.02,-142.8"/>
<polygon fill="black" stroke="black" points="777.02,-139.3 767.02,-142.8 777.02,-146.3 777.02,-139.3"/>
</g>
</g>
</svg>
